<svg xmlns="http://www.w3.org/2000/svg" viewBox="0 0 1180 610" width="1180" height="610">
  <defs>
    <style>
      @keyframes pulse { 0%,100%{opacity:1} 50%{opacity:0.3} }
      @keyframes blink { 0%,100%{opacity:1} 50%{opacity:0} }
      .live-pulse { animation: pulse 2s ease-in-out infinite; }
      .cursor-blink { animation: blink 1s step-end infinite; }
    </style>
    <filter id="glow-green">
      <feGaussianBlur stdDeviation="2" result="blur"/>
      <feMerge><feMergeNode in="blur"/><feMergeNode in="SourceGraphic"/></feMerge>
    </filter>
  </defs>
  <rect width="1180" height="610" fill="#FFFFFF"/>
  <rect x="1" y="1" width="1178" height="608" rx="10" fill="none" stroke="#0891B2" stroke-width="0.8" opacity="0.15"/>
  <rect x="1" y="1" width="1178" height="36" rx="10" fill="#F1F5F9"/>
  <rect x="1" y="20" width="1178" height="17" fill="#F1F5F9"/>
  <circle cx="20" cy="19" r="5" fill="#EF4444"/>
  <circle cx="38" cy="19" r="5" fill="#F59E0B"/>
  <circle cx="56" cy="19" r="5" fill="#10B981"/>
  <text x="80" y="24" font-family="'Courier New',monospace" font-size="12" fill="#94A3B8">profile.sh --live</text>
  <rect x="1095" y="9" width="70" height="20" rx="3" fill="#059669" opacity="0.08"/>
  <circle cx="1105" cy="19" r="3" fill="#059669" filter="url(#glow-green)" class="live-pulse"/>
  <text x="1114" y="23" font-family="'Courier New',monospace" font-size="10" fill="#059669" font-weight="bold">LIVE</text>
  <rect x="15" y="48" width="430" height="548" rx="6" fill="#F8FAFC" stroke="#0891B2" stroke-width="0.3" opacity="0.7"/>
  <text x="28" y="70" font-family="'Courier New',monospace" font-size="10" fill="#0891B2" font-weight="bold">VISUAL.MAP</text>
  <line x1="28" y1="76" x2="432" y2="76" stroke="#0891B2" stroke-width="0.3" opacity="0.2"/>
  <g opacity="0.08">
    <path d="M30 100 L100 100 L100 130 L180 130" fill="none" stroke="#0891B2" stroke-width="1.5"/>
    <circle cx="180" cy="130" r="3" fill="#0891B2"/>
    <path d="M220 150 L320 150 L320 180 L400 180" fill="none" stroke="#7C3AED" stroke-width="1.5"/>
    <circle cx="400" cy="180" r="3" fill="#7C3AED"/>
    <path d="M30 200 L80 200 L80 230 L160 230" fill="none" stroke="#059669" stroke-width="1.5"/>
    <circle cx="160" cy="230" r="3" fill="#059669"/>
  </g>
  <g opacity="0.07">
    <polygon points="230,250 245,240 260,250 260,270 245,280 230,270" fill="none" stroke="#0891B2" stroke-width="0.8"/>
    <polygon points="270,250 285,240 300,250 300,270 285,280 270,270" fill="none" stroke="#7C3AED" stroke-width="0.8"/>
    <polygon points="310,250 325,240 340,250 340,270 325,280 310,270" fill="none" stroke="#0891B2" stroke-width="0.8"/>
    <polygon points="250,290 265,280 280,290 280,310 265,320 250,310" fill="none" stroke="#059669" stroke-width="0.8"/>
    <polygon points="290,290 305,280 320,290 320,310 305,320 290,310" fill="none" stroke="#0891B2" stroke-width="0.8"/>
    <polygon points="330,290 345,280 360,290 360,310 345,320 330,310" fill="none" stroke="#7C3AED" stroke-width="0.8"/>
  </g>
  <text x="230" y="370" font-family="'Courier New',monospace" font-size="30" fill="#7C3AED" text-anchor="middle" font-weight="bold">SUJITH</text>
  <text x="230" y="392" font-family="'Courier New',monospace" font-size="14" fill="#64748B" text-anchor="middle" letter-spacing="3">RICHARD</text>
  <line x1="140" y1="405" x2="320" y2="405" stroke="#0891B2" stroke-width="0.5" opacity="0.4"/>
  <text x="230" y="425" font-family="'Courier New',monospace" font-size="10" fill="#475569" text-anchor="middle">Data Scientist &amp; AI Engineer</text>
  <rect x="80" y="455" width="80" height="80" rx="8" fill="#306998" opacity="0.06" stroke="#306998" stroke-width="0.5"/>
  <text x="120" y="485" font-family="'Courier New',monospace" font-size="18" fill="#306998" text-anchor="middle" font-weight="bold">Py</text>
  <text x="120" y="510" font-family="'Courier New',monospace" font-size="8" fill="#306998" text-anchor="middle">PYTHON</text>
  <rect x="190" y="455" width="80" height="80" rx="8" fill="#F2C811" opacity="0.06" stroke="#F2C811" stroke-width="0.5"/>
  <rect x="198" y="483" width="8" height="22" rx="2" fill="#F2C811"/>
  <rect x="210" y="473" width="8" height="32" rx="2" fill="#F2C811"/>
  <rect x="222" y="465" width="8" height="40" rx="2" fill="#F2C811"/>
  <text x="230" y="520" font-family="'Courier New',monospace" font-size="7" fill="#D4A800" text-anchor="middle">POWER BI</text>
  <rect x="300" y="455" width="80" height="80" rx="8" fill="#FF6F00" opacity="0.06" stroke="#FF6F00" stroke-width="0.5"/>
  <text x="340" y="485" font-family="'Courier New',monospace" font-size="14" fill="#FF6F00" text-anchor="middle" font-weight="bold">TF</text>
  <text x="340" y="510" font-family="'Courier New',monospace" font-size="7" fill="#FF6F00" text-anchor="middle">TENSORFLOW</text>
  <rect x="28" y="565" width="404" height="18" rx="3" fill="#FFFFFF" stroke="#0891B2" stroke-width="0.2" opacity="0.7"/>
  <text x="40" y="577" font-family="'Courier New',monospace" font-size="8" fill="#0891B2">$ status: Building + Learning + Shipping</text>
  <text x="340" y="577" font-family="'Courier New',monospace" font-size="8" fill="#059669" text-anchor="end" class="cursor-blink">_</text>
  <rect x="15" y="585" width="430" height="2" rx="1" fill="#7C3AED" opacity="0.3"/>
  <rect x="458" y="48" width="707" height="548" rx="6" fill="#F8FAFC" stroke="#0891B2" stroke-width="0.3" opacity="0.7"/>
  <text x="471" y="70" font-family="'Courier New',monospace" font-size="10" fill="#0891B2" font-weight="bold">SYSTEM.INFO</text>
  <line x1="471" y1="76" x2="1150" y2="76" stroke="#0891B2" stroke-width="0.3" opacity="0.2"/>
  <text x="471" y="98" font-family="'Courier New',monospace" font-size="9" fill="#94A3B8" font-weight="bold"># PROFILE</text>
  <line x1="471" y1="103" x2="520" y2="103" stroke="#94A3B8" stroke-width="0.3" opacity="0.3"/>
  <text x="471" y="125" font-family="'Courier New',monospace" font-size="13" fill="#475569">Subject</text>
  <text x="540" y="125" font-family="'Courier New',monospace" font-size="11" fill="#CBD5E1" letter-spacing="2">..........................................................................................</text>
  <text x="1040" y="125" font-family="'Courier New',monospace" font-size="13" fill="#0F172A" text-anchor="end">Sujith Richard</text>
  <text x="471" y="150" font-family="'Courier New',monospace" font-size="13" fill="#475569">Role</text>
  <text x="540" y="150" font-family="'Courier New',monospace" font-size="11" fill="#CBD5E1" letter-spacing="2">..........................................................................................</text>
  <text x="1040" y="150" font-family="'Courier New',monospace" font-size="13" fill="#0F172A" text-anchor="end">Data Scientist &amp; AI Engineer</text>
  <text x="471" y="175" font-family="'Courier New',monospace" font-size="13" fill="#475569">Origin</text>
  <text x="540" y="175" font-family="'Courier New',monospace" font-size="11" fill="#CBD5E1" letter-spacing="2">..........................................................................................</text>
  <text x="1040" y="175" font-family="'Courier New',monospace" font-size="13" fill="#0F172A" text-anchor="end">Bangalore, India</text>
  <text x="471" y="200" font-family="'Courier New',monospace" font-size="13" fill="#475569">Education</text>
  <text x="540" y="200" font-family="'Courier New',monospace" font-size="11" fill="#CBD5E1" letter-spacing="2">..........................................................................................</text>
  <text x="1040" y="200" font-family="'Courier New',monospace" font-size="13" fill="#0F172A" text-anchor="end">B.E. ECE (2025)</text>
  <text x="471" y="225" font-family="'Courier New',monospace" font-size="13" fill="#475569">Status</text>
  <text x="540" y="225" font-family="'Courier New',monospace" font-size="11" fill="#CBD5E1" letter-spacing="2">..........................................................................................</text>
  <text x="1040" y="225" font-family="'Courier New',monospace" font-size="12" fill="#059669" text-anchor="end">Building + Learning + Shipping</text>
  <text x="471" y="250" font-family="'Courier New',monospace" font-size="13" fill="#475569">ToolChain</text>
  <text x="540" y="250" font-family="'Courier New',monospace" font-size="11" fill="#CBD5E1" letter-spacing="2">..........................................................................................</text>
  <text x="1040" y="250" font-family="'Courier New',monospace" font-size="13" fill="#0F172A" text-anchor="end">VS Code, Git, Jupyter, Python, SQL</text>
  <text x="471" y="283" font-family="'Courier New',monospace" font-size="9" fill="#7C3AED" font-weight="bold"># CORE</text>
  <line x1="471" y1="288" x2="510" y2="288" stroke="#7C3AED" stroke-width="0.3" opacity="0.3"/>
  <text x="471" y="310" font-family="'Courier New',monospace" font-size="13" fill="#475569">Core.Lang</text>
  <text x="540" y="310" font-family="'Courier New',monospace" font-size="11" fill="#CBD5E1" letter-spacing="2">..........................................................................................</text>
  <text x="1040" y="310" font-family="'Courier New',monospace" font-size="13" fill="#0F172A" text-anchor="end">Python, SQL, MongoDB</text>
  <text x="471" y="335" font-family="'Courier New',monospace" font-size="13" fill="#475569">Core.Frontend</text>
  <text x="540" y="335" font-family="'Courier New',monospace" font-size="11" fill="#CBD5E1" letter-spacing="2">..........................................................................................</text>
  <text x="1040" y="335" font-family="'Courier New',monospace" font-size="13" fill="#0F172A" text-anchor="end">Django, Flutter</text>
  <text x="471" y="360" font-family="'Courier New',monospace" font-size="13" fill="#475569">Core.Backend</text>
  <text x="540" y="360" font-family="'Courier New',monospace" font-size="11" fill="#CBD5E1" letter-spacing="2">..........................................................................................</text>
  <text x="1040" y="360" font-family="'Courier New',monospace" font-size="13" fill="#0F172A" text-anchor="end">Django, FastAPI</text>
  <text x="471" y="385" font-family="'Courier New',monospace" font-size="13" fill="#475569">Core.Database</text>
  <text x="540" y="385" font-family="'Courier New',monospace" font-size="11" fill="#CBD5E1" letter-spacing="2">..........................................................................................</text>
  <text x="1040" y="385" font-family="'Courier New',monospace" font-size="12" fill="#0F172A" text-anchor="end">MySQL, MSSQL, Firebase, Supabase, PostgreSQL</text>
  <text x="471" y="410" font-family="'Courier New',monospace" font-size="13" fill="#475569">Core.Infra</text>
  <text x="540" y="410" font-family="'Courier New',monospace" font-size="11" fill="#CBD5E1" letter-spacing="2">..........................................................................................</text>
  <text x="1040" y="410" font-family="'Courier New',monospace" font-size="13" fill="#0F172A" text-anchor="end">AWS, GCP, Docker, Render</text>
  <text x="471" y="443" font-family="'Courier New',monospace" font-size="9" fill="#0891B2" font-weight="bold"># GRID</text>
  <line x1="471" y1="448" x2="510" y2="448" stroke="#0891B2" stroke-width="0.3" opacity="0.3"/>
  <text x="471" y="470" font-family="'Courier New',monospace" font-size="13" fill="#475569">Grid.Mail</text>
  <text x="540" y="470" font-family="'Courier New',monospace" font-size="11" fill="#CBD5E1" letter-spacing="2">..........................................................................................</text>
  <text x="1040" y="470" font-family="'Courier New',monospace" font-size="12" fill="#059669" text-anchor="end">sujithrichard.p@gmail.com</text>
  <text x="471" y="495" font-family="'Courier New',monospace" font-size="13" fill="#475569">Grid.Portfolio</text>
  <text x="540" y="495" font-family="'Courier New',monospace" font-size="11" fill="#CBD5E1" letter-spacing="2">..........................................................................................</text>
  <text x="1040" y="495" font-family="'Courier New',monospace" font-size="12" fill="#7C3AED" text-anchor="end">sujithrichard.lovable.app</text>
  <text x="471" y="520" font-family="'Courier New',monospace" font-size="13" fill="#475569">Grid.LinkedIn</text>
  <text x="540" y="520" font-family="'Courier New',monospace" font-size="11" fill="#CBD5E1" letter-spacing="2">..........................................................................................</text>
  <text x="1040" y="520" font-family="'Courier New',monospace" font-size="12" fill="#0891B2" text-anchor="end">sujith-p-richard</text>
  <text x="471" y="545" font-family="'Courier New',monospace" font-size="13" fill="#475569">Grid.GitHub</text>
  <text x="540" y="545" font-family="'Courier New',monospace" font-size="11" fill="#CBD5E1" letter-spacing="2">..........................................................................................</text>
  <text x="1040" y="545" font-family="'Courier New',monospace" font-size="12" fill="#0F172A" text-anchor="end">Sujith-richard</text>
  <text x="471" y="570" font-family="'Courier New',monospace" font-size="13" fill="#475569">Grid.Facebook</text>
  <text x="540" y="570" font-family="'Courier New',monospace" font-size="11" fill="#CBD5E1" letter-spacing="2">..........................................................................................</text>
  <text x="1040" y="570" font-family="'Courier New',monospace" font-size="12" fill="#0891B2" text-anchor="end">SujithRichard</text>
  <rect x="458" y="585" width="707" height="2" rx="1" fill="#0891B2" opacity="0.3"/>
  <rect x="955" y="555" width="110" height="24" rx="12" fill="#7C3AED" opacity="0.1" stroke="#7C3AED" stroke-width="0.5"/>
  <text x="1010" y="571" font-family="'Courier New',monospace" font-size="11" fill="#7C3AED" text-anchor="middle" font-weight="bold">SUJITH</text>
  <circle cx="1095" cy="565" r="2" fill="#0891B2" opacity="0.4"/>
  <circle cx="1105" cy="565" r="2" fill="#7C3AED" opacity="0.4"/>
  <circle cx="1115" cy="565" r="2" fill="#059669" opacity="0.4"/>
</svg>
